<svg width="78" height="91" viewBox="0 0 78 91" fill="none" xmlns="http://www.w3.org/2000/svg">
<path d="M54.3784 38.5399C54.3784 47.2873 47.2872 54.3786 38.5397 54.3786C29.7922 54.3786 22.701 47.2873 22.701 38.5399C22.701 29.7924 29.7922 22.7011 38.5397 22.7011C47.2872 22.7011 54.3784 29.7924 54.3784 38.5399Z" fill="#2B2B2B"/>
<path d="M64.9377 38.5399C64.9377 23.9607 53.119 12.142 38.5399 12.142C23.9607 12.142 12.142 23.9607 12.142 38.5399C12.142 46.1739 14.8808 48.7506 20.0613 57.0184C21.2506 58.9163 27.0577 65.9761 27.9807 67.5775C30.7159 72.323 33.3471 78.1366 38.5399 78.1366C42.435 78.1366 44.8888 74.8656 47.0264 71.2278L49.099 67.5775C49.9067 66.1762 54.4529 60.5963 56.3739 57.9516L57.0184 57.0184C62.1989 48.7507 64.9377 46.1739 64.9377 38.5399ZM77.0797 38.5399C77.0797 44.1851 75.9813 48.6282 73.7542 53.0277C72.1048 56.2855 69.2417 60.3845 67.3094 63.4683C66.6692 64.4898 65.7383 65.7223 65.0718 66.5979C64.2952 67.6179 63.381 68.7926 62.5403 69.8718C61.6707 70.988 60.8752 72.0089 60.2459 72.8416C59.4318 73.9189 59.396 74.0239 59.6169 73.6408C58.7457 75.1524 56.6321 79.2349 54.1981 82.2562C51.478 85.6326 46.4065 90.2786 38.5399 90.2786C30.6732 90.2786 25.6018 85.6325 22.8816 82.2562C20.4471 79.2344 18.3288 75.1522 17.4577 73.6408C17.6789 74.0246 17.6483 73.9194 16.8338 72.8416C16.2045 72.0089 15.409 70.988 14.5394 69.8718C13.6986 68.7926 12.7845 67.618 12.0079 66.5979C11.3414 65.7224 10.4105 64.4898 9.7703 63.4683C7.8379 60.3843 4.97498 56.2857 3.32551 53.0277C1.09848 48.6281 0 44.1849 0 38.5399C0 17.2543 17.2543 0 38.5399 0C59.8254 0 77.0797 17.2543 77.0797 38.5399Z" fill="#D4845A"/>
<path d="M54.3784 38.5399C54.3784 47.2873 47.2872 54.3786 38.5397 54.3786C29.7922 54.3786 22.701 47.2873 22.701 38.5399C22.701 29.7924 29.7922 22.7011 38.5397 22.7011C47.2872 22.7011 54.3784 29.7924 54.3784 38.5399Z" fill="#2B2B2B"/>
<path d="M64.9377 38.5399C64.9377 23.9607 53.119 12.142 38.5399 12.142C23.9607 12.142 12.142 23.9607 12.142 38.5399C12.142 46.1739 14.8808 48.7506 20.0613 57.0184C21.2506 58.9163 27.0577 65.9761 27.9807 67.5775C30.7159 72.323 33.3471 78.1366 38.5399 78.1366C42.435 78.1366 44.8888 74.8656 47.0264 71.2278L49.099 67.5775C49.9067 66.1762 54.4529 60.5963 56.3739 57.9516L57.0184 57.0184C62.1989 48.7507 64.9377 46.1739 64.9377 38.5399ZM77.0797 38.5399C77.0797 44.1851 75.9813 48.6282 73.7542 53.0277C72.1048 56.2855 69.2417 60.3845 67.3094 63.4683C66.6692 64.4898 65.7383 65.7223 65.0718 66.5979C64.2952 67.6179 63.381 68.7926 62.5403 69.8718C61.6707 70.988 60.8752 72.0089 60.2459 72.8416C59.4318 73.9189 59.396 74.0239 59.6169 73.6408C58.7457 75.1524 56.6321 79.2349 54.1981 82.2562C51.478 85.6326 46.4065 90.2786 38.5399 90.2786C30.6732 90.2786 25.6018 85.6325 22.8816 82.2562C20.4471 79.2344 18.3288 75.1522 17.4577 73.6408C17.6789 74.0246 17.6483 73.9194 16.8338 72.8416C16.2045 72.0089 15.409 70.988 14.5394 69.8718C13.6986 68.7926 12.7845 67.618 12.0079 66.5979C11.3414 65.7224 10.4105 64.4898 9.7703 63.4683C7.8379 60.3843 4.97498 56.2857 3.32551 53.0277C1.09848 48.6281 0 44.1849 0 38.5399C0 17.2543 17.2543 0 38.5399 0C59.8254 0 77.0797 17.2543 77.0797 38.5399Z" fill="#D4845A"/>
</svg>
