<svg width="80" height="80" viewBox="0 0 80 80" fill="none" xmlns="http://www.w3.org/2000/svg">
<path d="M0 26.3979C0 11.8187 11.8187 0 26.3979 0H52.7957C67.3749 0 79.1936 11.8187 79.1936 26.3979V52.7957C79.1936 67.3749 67.3749 79.1936 52.7957 79.1936H26.3979C11.8187 79.1936 0 67.3749 0 52.7957V26.3979Z" fill="#D4845A"/>
<path d="M48.7139 35.798C48.7139 40.8333 44.632 44.9152 39.5967 44.9152C34.5614 44.9152 30.4795 40.8333 30.4795 35.798C30.4795 30.7627 34.5614 26.6808 39.5967 26.6808C44.632 26.6808 48.7139 30.7627 48.7139 35.798Z" fill="#F4EFE9"/>
<path d="M54.7921 35.798C54.7921 27.4058 47.9889 20.6026 39.5968 20.6026C31.2047 20.6026 24.4015 27.4058 24.4015 35.798C24.4015 40.1923 25.978 41.6756 28.9601 46.4347C29.6446 47.5272 32.9874 51.591 33.5187 52.5128C35.0931 55.2445 36.6077 58.591 39.5968 58.591C41.839 58.591 43.2514 56.708 44.4819 54.614L45.6749 52.5128C46.1399 51.7062 48.7568 48.4942 49.8625 46.9719L50.2335 46.4347C53.2156 41.6756 54.7921 40.1923 54.7921 35.798ZM61.7814 35.798C61.7814 39.0475 61.1491 41.6051 59.8671 44.1376C58.9177 46.0128 57.2696 48.3723 56.1573 50.1475C55.7888 50.7354 55.2529 51.4449 54.8693 51.9489C54.4223 52.5361 53.8961 53.2123 53.4121 53.8335C52.9115 54.476 52.4536 55.0637 52.0914 55.543C51.6227 56.1631 51.6022 56.2235 51.7293 56.003C51.2278 56.8731 50.0112 59.2231 48.6101 60.9623C47.0443 62.9058 44.125 65.5802 39.5968 65.5802C35.0686 65.5802 32.1493 62.9058 30.5835 60.9623C29.1821 59.2228 27.9628 56.873 27.4613 56.003C27.5887 56.224 27.5711 56.1634 27.1022 55.543C26.74 55.0637 26.2821 54.476 25.7815 53.8335C25.2975 53.2123 24.7713 52.5361 24.3243 51.9489C23.9407 51.445 23.4048 50.7355 23.0363 50.1475C21.9239 48.3722 20.2759 46.013 19.3265 44.1376C18.0445 41.605 17.4122 39.0474 17.4122 35.798C17.4122 23.5454 27.3443 13.6134 39.5968 13.6134C51.8493 13.6134 61.7814 23.5454 61.7814 35.798Z" fill="#F4EFE9"/>
</svg>
