<svg width="271" height="91" viewBox="0 0 271 91" fill="none" xmlns="http://www.w3.org/2000/svg">
<path d="M259.807 69.1614V21.1173H270.102V69.1614H259.807Z" fill="#2B2B2B"/>
<path d="M222.94 69.985C218.136 69.985 213.995 68.9555 210.518 66.8965C207.04 64.7917 204.363 61.8861 202.487 58.1799C200.611 54.4279 199.673 50.1268 199.673 45.2766C199.673 40.3349 200.611 36.011 202.487 32.3047C204.363 28.5527 207.04 25.6243 210.518 23.5195C213.995 21.3689 218.136 20.2937 222.94 20.2937C228.889 20.2937 233.739 21.7807 237.491 24.7549C241.289 27.7291 243.645 31.9158 244.56 37.315H233.304C232.755 34.8899 231.588 33.0139 229.804 31.687C228.019 30.3143 225.709 29.628 222.872 29.628C220.172 29.628 217.861 30.2685 215.94 31.5497C214.064 32.8309 212.622 34.6383 211.616 36.9718C210.655 39.2597 210.174 42.0279 210.174 45.2766C210.174 48.4338 210.655 51.1792 211.616 53.5127C212.622 55.8006 214.064 57.5851 215.94 58.8662C217.861 60.1017 220.172 60.7194 222.872 60.7194C225.709 60.7194 227.996 60.1245 229.735 58.9349C231.52 57.6994 232.709 55.9378 233.304 53.65H244.56C243.645 58.729 241.289 62.7326 237.491 65.661C233.739 68.5437 228.889 69.985 222.94 69.985Z" fill="#2B2B2B"/>
<path d="M162.053 69.985C157.34 69.985 153.199 68.9326 149.63 66.8278C146.061 64.723 143.247 61.8175 141.188 58.1112C139.174 54.3592 138.168 50.0353 138.168 45.1393C138.168 40.2434 139.174 35.9423 141.188 32.2361C143.247 28.484 146.061 25.5556 149.63 23.4509C153.199 21.3461 157.34 20.2937 162.053 20.2937C166.765 20.2937 170.929 21.3461 174.544 23.4509C178.159 25.5556 180.95 28.484 182.917 32.2361C184.931 35.9423 185.937 40.2434 185.937 45.1393C185.937 50.0353 184.931 54.3592 182.917 58.1112C180.95 61.8175 178.159 64.723 174.544 66.8278C170.929 68.9326 166.765 69.985 162.053 69.985ZM162.053 60.7194C164.844 60.7194 167.223 60.0788 169.191 58.7976C171.204 57.5164 172.76 55.7319 173.858 53.4441C174.956 51.1105 175.505 48.3423 175.505 45.1393C175.505 41.9364 174.956 39.191 173.858 36.9032C172.76 34.5696 171.204 32.7851 169.191 31.5497C167.223 30.2685 164.844 29.628 162.053 29.628C159.353 29.628 156.996 30.2685 154.983 31.5497C152.97 32.7851 151.414 34.5696 150.316 36.9032C149.218 39.191 148.669 41.9364 148.669 45.1393C148.669 48.3423 149.218 51.1105 150.316 53.4441C151.414 55.7319 152.97 57.5164 154.983 58.7976C156.996 60.0788 159.353 60.7194 162.053 60.7194Z" fill="#2B2B2B"/>
<path d="M97.3416 69.1614V21.1173H107.637V61.1998H128.364V69.1614H97.3416Z" fill="#2B2B2B"/>
<path d="M54.3784 38.5399C54.3784 47.2873 47.2872 54.3786 38.5397 54.3786C29.7922 54.3786 22.701 47.2873 22.701 38.5399C22.701 29.7924 29.7922 22.7011 38.5397 22.7011C47.2872 22.7011 54.3784 29.7924 54.3784 38.5399Z" fill="#2B2B2B"/>
<path d="M64.9377 38.5399C64.9377 23.9607 53.119 12.142 38.5399 12.142C23.9607 12.142 12.142 23.9607 12.142 38.5399C12.142 46.1739 14.8808 48.7506 20.0613 57.0184C21.2506 58.9163 27.0577 65.9761 27.9807 67.5775C30.7159 72.323 33.3471 78.1366 38.5399 78.1366C42.435 78.1366 44.8888 74.8656 47.0264 71.2278L49.099 67.5775C49.9067 66.1762 54.4529 60.5963 56.3739 57.9516L57.0184 57.0184C62.1989 48.7507 64.9377 46.1739 64.9377 38.5399ZM77.0797 38.5399C77.0797 44.1851 75.9813 48.6282 73.7542 53.0277C72.1048 56.2855 69.2417 60.3845 67.3094 63.4683C66.6692 64.4898 65.7383 65.7223 65.0718 66.5979C64.2952 67.6179 63.381 68.7926 62.5403 69.8718C61.6707 70.988 60.8752 72.0089 60.2459 72.8416C59.4318 73.9189 59.396 74.0239 59.6169 73.6408C58.7457 75.1524 56.6321 79.2349 54.1981 82.2562C51.478 85.6326 46.4065 90.2786 38.5399 90.2786C30.6732 90.2786 25.6018 85.6325 22.8816 82.2562C20.4471 79.2344 18.3288 75.1522 17.4577 73.6408C17.6789 74.0246 17.6483 73.9194 16.8338 72.8416C16.2045 72.0089 15.409 70.988 14.5394 69.8718C13.6986 68.7926 12.7845 67.618 12.0079 66.5979C11.3414 65.7224 10.4105 64.4898 9.7703 63.4683C7.8379 60.3843 4.97498 56.2857 3.32551 53.0277C1.09848 48.6281 0 44.1849 0 38.5399C0 17.2543 17.2543 0 38.5399 0C59.8254 0 77.0797 17.2543 77.0797 38.5399Z" fill="#D4845A"/>
<path d="M54.3784 38.5399C54.3784 47.2873 47.2872 54.3786 38.5397 54.3786C29.7922 54.3786 22.701 47.2873 22.701 38.5399C22.701 29.7924 29.7922 22.7011 38.5397 22.7011C47.2872 22.7011 54.3784 29.7924 54.3784 38.5399Z" fill="#2B2B2B"/>
<path d="M64.9377 38.5399C64.9377 23.9607 53.119 12.142 38.5399 12.142C23.9607 12.142 12.142 23.9607 12.142 38.5399C12.142 46.1739 14.8808 48.7506 20.0613 57.0184C21.2506 58.9163 27.0577 65.9761 27.9807 67.5775C30.7159 72.323 33.3471 78.1366 38.5399 78.1366C42.435 78.1366 44.8888 74.8656 47.0264 71.2278L49.099 67.5775C49.9067 66.1762 54.4529 60.5963 56.3739 57.9516L57.0184 57.0184C62.1989 48.7507 64.9377 46.1739 64.9377 38.5399ZM77.0797 38.5399C77.0797 44.1851 75.9813 48.6282 73.7542 53.0277C72.1048 56.2855 69.2417 60.3845 67.3094 63.4683C66.6692 64.4898 65.7383 65.7223 65.0718 66.5979C64.2952 67.6179 63.381 68.7926 62.5403 69.8718C61.6707 70.988 60.8752 72.0089 60.2459 72.8416C59.4318 73.9189 59.396 74.0239 59.6169 73.6408C58.7457 75.1524 56.6321 79.2349 54.1981 82.2562C51.478 85.6326 46.4065 90.2786 38.5399 90.2786C30.6732 90.2786 25.6018 85.6325 22.8816 82.2562C20.4471 79.2344 18.3288 75.1522 17.4577 73.6408C17.6789 74.0246 17.6483 73.9194 16.8338 72.8416C16.2045 72.0089 15.409 70.988 14.5394 69.8718C13.6986 68.7926 12.7845 67.618 12.0079 66.5979C11.3414 65.7224 10.4105 64.4898 9.7703 63.4683C7.8379 60.3843 4.97498 56.2857 3.32551 53.0277C1.09848 48.6281 0 44.1849 0 38.5399C0 17.2543 17.2543 0 38.5399 0C59.8254 0 77.0797 17.2543 77.0797 38.5399Z" fill="#D4845A"/>
</svg>
